<svg xmlns="http://www.w3.org/2000/svg" width="545" height="640"><path d="M473.5 54c-.3.6-.2 2.5.4 4.3.6 1.7 2.5 7.9 4.2 13.6 3.8 12.2 8.1 19.5 12.1 19.9 3.6.4 4.6-2.8 2-7.1-1.9-3.2-3.6-8.8-4.7-15.8-1-6.2-12.1-18-14-14.9zM442 66.6c0 1.3 5.4 12.8 9.1 19.4 1.9 3.3 7.1 10.3 8.4 11.2 1.7 1.3 5.3.9 5.9-.7.7-2 .1-3.6-5-12.2-2.3-3.9-4.5-8.1-4.9-9.2-.8-2.8-9.3-10.1-11.6-10.1-1.1 0-1.9.7-1.9 1.6zm-324.3 14c-.7.7 1.2 7.3 2.8 9.8 1.8 2.8 4 12.2 5.4 23.1l2.2 14.8c1.4 7.9 1.9 24.8 1.9 58.2 0 31.9-.3 32.8-6.1 27.8-5.2-4.5-12.6-9.3-14.3-9.3-.8 0-1.7-.4-2-.9s-2.1-1.2-3.9-1.5c-1.9-.3-4.4-1.7-5.7-3.1s-2.8-2.5-3.3-2.5c-.6 0-2.6-1.2-4.6-2.7-2-1.6-5.7-3.8-8.3-5s-5.9-3-7.5-4.1C63 177.5 58.6 175 56.5 175h-2.4l2.1 4.7c1.2 2.7 3.9 6.5 6 8.6 5.6 5.4 4.9 7.1-3.5 7.8-3.7.3-7 .8-7.3 1.2-1.1 1.1 2.1 8 5 10.9 2.5 2.6 3.4 2.9 6.5 2.3 2-.4 4.4-1.4 5.4-2.3 2.3-2 8.7-2.4 8.7-.5 0 2-4.2 6.4-5.7 5.9-.7-.3-3.6.8-6.5 2.4l-7.3 3.9c-4.3 1.9-5 3.8-3.2 8.7 2 5.5 5.6 10.3 7.8 10.3.9.1 4-1.6 7-3.7 3-2.2 9-5.8 13.4-8.1 4.4-2.4 8.7-4.9 9.6-5.7.8-.8 2.1-1.4 2.8-1.4.6 0 2.3-.7 3.6-1.6 2.6-1.7 6.3-1.3 12 1.1 12.7 5.5 17.5 8 17.5 9 0 .7.7 1.6 1.7 1.9 1.5.6 1.6 2.8 1 22.9-.8 29.1-3.4 51.9-7.2 63.2-1.4 4.2-2.3 7.7-5.1 19-.9 3.8-2 7.5-2.5 8-.7.9-4.7 13.4-10.1 31.5-1.9 6.7-3.8 24.5-3.4 32.8.5 10.5 5.2 23.3 13.4 36.8 5.4 9 10.4 14.4 17.2 18.6 4.7 2.9 13.5 7 14.3 6.7.1-.1 1.9.6 4 1.4a45.87 45.87 0 0 0 7.2 2.3c1.9.3 3.5 1 3.5 1.5s1 .9 2.3.9c1.2 0 3.1.7 4.1 1.5 1.1.8 2.8 1.5 3.8 1.5 2.8 0 2.1 2.7-1.6 6.5-1.9 1.9-3.8 4-4.3 4.8-.4.7-3.4 3.1-6.6 5.2l-5.8 3.8-9.7-1.1c-10.3-1.1-39.8-.9-44.5.3-1.9.5-2.7 1.3-2.4 2.4.2.9.9 1.5 1.5 1.4.7-.2 1.2.7 1.2 2 0 3.1 3.6 8.7 5.7 8.8 2.9.2 11.6-.3 13.8-.8 6-1.4 11.8-1.5 12.6-.2 1.3 2.2 1.1 2.9-1.3 3.8-1.3.5-5.3 2.3-9 4-3.7 1.8-9 3.6-11.8 4-2.8.5-5.6 1.3-6.2 1.9-2.7 2.7 5.2 14.2 9.7 14.2 5.1 0 14.3-4.1 23.7-10.7 5.5-3.8 5.5-3.8 7.3-1.9 1.2 1.1 1 2.1-1.2 6.2-1.4 2.7-2.9 5.3-3.4 5.9-.5.5-.9 1.7-.9 2.7s-.7 1.8-1.5 1.8c-.7 0-1.8.6-2.2 1.3s-2.3 2.3-4 3.6c-3.7 2.5-4.1 4.2-1.6 6.2.9.8 2.2 2.9 3 4.6 1.7 4.1 4.9 4.4 10 .9 7.4-5 12.9-17.5 15.8-35.6 1.3-8.2 1.8-9.8 4.2-11.7 1.6-1.3 3.3-2.3 3.8-2.3 3.1 0 21.5-20.3 21.5-23.8 0-1.9 3.2-2.2 11.7-1.2 4.7.6 24.6 1.5 44.2 1.9 34.3.8 56.2.1 73.4-2.5 7.8-1.1 8.5 1.6 3.3 12.8-1.9 4-3.9 8.8-4.6 10.6s-2.9 4.5-4.9 6-4.2 3.5-4.9 4.5c-1.2 1.6-2.6 1.7-14.5 1.1l-16.7-.8c-3.4-.1-3.5 0-3.4 3.4 0 2 1.2 5.2 2.5 7.3 2.9 4.6 6.8 5.8 16.4 5.3 6.8-.3 9.5.4 9.5 2.8 0 .6-1.5 1.7-3.2 2.4a51.19 51.19 0 0 0-5 2.3c-1 .5-2.4.9-3.2.9-.7 0-1.9.7-2.6 1.5-1.9 2.3-9.9 5.5-13.8 5.5-3.3 0-3.4.1-2.9 3 .9 4.5 5.5 10.7 8.7 11.8 4 1.4 10.9-2 19.2-9.7 7-6.5 7.9-6.9 9.7-4.7.8 1 .8 2.1-.1 4.2-2.8 6.2-7.4 13.1-11.2 16.5-4.3 3.9-4.4 5.5-.6 11.7 3.7 5.9 7.6 4.1 15.1-6.9 8.2-12.1 10.7-22.8 7.9-33.7-1.6-6-.3-13.1 3-16.7 2.9-3.1 8.6-14.3 11.5-22.3 2.8-7.8 2.7-11.2-.3-16.4-.9-1.5-1.3-3-.9-3.4.3-.3 4.8-1.7 9.9-3.1 8.6-2.3 12.3-4 38.8-18.1 11.8-6.2 26.6-16 32.3-21.4s6-7.9 1.2-13.1c-4.9-5.3-8.6-5.1-14.3.8-2.4 2.5-5.1 4.5-6.1 4.5-.9 0-2.3.9-3.1 2s-2.2 2-3.2 2-1.8.4-1.8 1c0 .5-.5 1-1.2 1-.6 0-2 .8-3.1 1.8-4.4 4-22.9 13.9-41.3 22.1-11.8 5.2-25.8 7.6-57.4 9.9-15 1.1-72.2-.4-86.5-2.2-19.8-2.5-40.8-9-60-18.6-10.2-5.1-12.3-7.8-17.2-21-2.6-6.9-2.8-8.6-2.8-22 .1-12.6.4-15.9 2.9-25 2.7-10.4 6.9-23.6 8.7-27.5 3.1-6.5 10.7-38.2 13.5-55.5 2.4-15.4 2.6-18.6 2.5-48.5l-2-111c-.6-3.3-1.6-11-2.1-17-1.1-11.4-5.6-28.5-9.1-34-2-3.4-11.4-11.7-12.2-10.9zm28.1 433.6c.2 1.1-.3 1.8-1.2 1.8s-1.6-.4-1.6-.9c0-.6-1.2-.6-3.2 0-4.3 1.2-4.4 1.2-2.5-.9.9-.9 3-1.7 4.9-1.7 2.3 0 3.4.5 3.6 1.7zm159.9 25.2c-.3.8-.1 1.7.6 1.9 2.3.8-.2 1.9-2.9 1.3-2.5-.7-2.6-.8-.9-2.6 2.1-2.3 4-2.6 3.2-.6zM202.4 92.2c-3.4 7.7-7.9 13.7-18.2 24.6-4 4.2-7.5 8.6-7.8 9.7-.7 2.9 3 10.7 6.3 13.1 3.8 2.8 6.1 1.8 10.8-4.8 2.1-2.9 6.2-7.8 9.1-10.8 2.8-3 6.6-7.9 8.4-10.8 4.7-7.6 7.3-7.3 19 2.5 7.4 6.2 7.9 6.6 14 11.3 2.5 1.9 6.5 5.3 9 7.5 4.4 3.8 9.5 8.1 17 14.2 1.9 1.5 3.7 3 4 3.3 4.4 4.5 13.3 11 15.2 11 4 0 5.2-1.6 4.9-6.2 0-.9-3.4-4.3-7.3-7.5L279 143c-.3-.3-3.2-2.7-6.5-5.3l-11.2-8.9c-8.7-7.3-24.7-20.2-28.2-22.8-1.9-1.4-4.1-3.2-5-4s-3.4-2.7-5.6-4.3c-2.2-1.5-6-4.3-8.5-6.1-6.4-4.9-9.2-4.7-11.6.6zM356 94.4c0 2.7-7.2 15.1-11.7 20.1-2.5 2.7-4.9 5.9-5.3 7-1 2.6 1.6 9.1 5.3 13.5 2.5 2.9 3 3.2 5.1 2.1 1.2-.7 3.1-2.7 4.1-4.4 1-1.8 3.5-5.5 5.5-8.2 2-2.8 4.3-6.5 5-8.3.8-2 1.9-3.2 3.2-3.2 2.6 0 8.9 2.7 11.3 5 1.1 1 3.4 2.6 5.1 3.7 8.3 4.9 17.7 11.6 24.9 17.6 4.5 3.8 8.9 6.7 10.2 6.7 2 0 5.3-3.3 5.3-5.3 0-2.5-18.6-18.9-26.5-23.3l-5.6-3.1-6-3.5c-1.3-.7-4-2.6-5.9-4.1l-4.6-3.6c-.6-.5-2.6-1.7-4.5-2.6-1.9-1-5-3.1-6.9-4.6-3.7-3.1-8-3.9-8-1.5zm-140.4 61.1c-6.8 1.9-12 7.2-16.7 17.1-6.6 13.8-6.7 25.5-.4 33.8 1.4 1.8 2.5 3.7 2.5 4.3 0 1.7 6.1 6.2 9.3 6.9 2.9.6 3.6.1 9.2-5.8 9.9-10.5 12.1-17 9.4-27.7-1.1-4.1-2.1-5.9-4.1-7-3.1-1.8-3.5-3.3-1.4-5 4.1-3.4 14.8-1.9 19.4 2.7 7.3 7.3 10.2 20 6.5 28.3-4 8.7-13.9 17.6-20.2 18.2-1.9.1-3.9 1-4.5 1.9-.8 1.4 0 2.7 4.6 7.3 4.8 4.8 6 5.5 9.5 5.5 7.5 0 16.2-7.4 21.9-18.8 2.6-5.1 2.9-6.7 2.9-15.3 0-9.3-.1-9.8-4.3-18.3-6.7-13.4-18.5-24.2-30.2-27.4-6.6-1.9-8.5-2-13.4-.7zm3.4 28.1c0 2.5-8.3 11.4-10.6 11.4-1.4 0-1.5-.7-.9-4.7.4-2.5 1.3-5.2 2.1-6s1.4-1.9 1.4-2.4 1-1.3 2.2-1.8c2.9-1 5.8.7 5.8 3.5zm139.6-15.5c-5.3 2.8-13.1 10.9-15 15.4-.9 2-1.7 6.7-1.8 10.3-.3 5.7.1 7.5 2.6 12.3 6.7 13.1 14.7 20.7 20.4 19.4 3-.6 6.3-5 10.9-14 4.7-9.4 3.6-17.9-2.9-22.4-6.1-4.2-3.8-6.7 6.6-7 3.6-.1 9.1 2.3 12.4 5.5 3.2 3.2 2.2 22.3-1.4 25.8-.8.8-1.4 1.8-1.4 2.3 0 1.1-8.5 8.3-9.8 8.3-.5 0-1.5.7-2.2 1.5-1 1.2-.9 2 .5 4.2 3.3 5.3 6.8 8.3 9.5 8.3 6 0 15.4-9.9 18.5-19.4 1.7-5.1 2.1-16.2.9-21.3-1.6-6.8-6.5-14.2-13.5-20.6-5.8-5.5-8.3-7.1-13.6-8.7-8.4-2.6-15.6-2.5-20.7.1zm7.4 21.4c.8 1 1 3 .6 5.8-.5 3.4-1.7 5.4-5.6 9.2-5.5 5.4-8 5.5-8 .4 0-10.6 8.6-20.7 13-15.4z"/><path d="M289.7 254.4c-.3.7-.1 1.8.4 2.3 1.3 1.3-1.9 10.1-4 11.2-.9.4-5.8.4-11 0s-9.8-.6-10.3-.3c-1.1.7-1 3.4.2 3.4.6 0 1 .6 1 1.4 0 2.1 5.9 9 8.3 9.7 1.2.3 2.9.1 3.8-.4 2.2-1.4 4.9-.2 4.9 2.1 0 2.9-3.8 4.4-8 3.2-1.9-.5-6.1-1-9.2-1-6.9 0-7.3 1-3.2 8.8 3 5.9 3.8 6.4 11.9 7.1l6 .6 1.4 4.5c3 9.7 7.7 15.8 14.9 19.2 4.2 2 4.4 2 10 .3 7.4-2.3 17.2-6.5 19.5-8.3 2.8-2.4 2-5.2-2.8-10.3-2.5-2.6-4.5-5.6-4.5-6.7 0-2.3-6.6-8.7-10.5-10.2-1.6-.6-4.8-1.1-7-1-6.2.3-6.5.2-6.5-2.4 0-2.1.6-2.5 4.6-3.1 2.9-.4 5-.3 5.7.4.6.6 3.7 1.1 6.8 1.1 6.1 0 8.5-1.5 7.5-4.8-.9-2.9-8.3-9.5-11.8-10.6-2.8-.9-3.4-1.8-4.2-5.4-.6-3-1.7-4.9-3.5-6-1.4-.9-3.4-2.7-4.4-3.9-2.1-2.6-5.2-3-6-.9zm17.9 49.7c1.9 2 .6 3.3-5 5.2-6.7 2.3-9.3 2.2-10.1-.4-1.2-3.6 3.9-7.1 9.4-6.5 2.3.2 4.9 1 5.7 1.7zM224.4 345c-6 6.1-11 11.5-11.2 12s.8 3.5 2.2 6.5c2.8 5.8 6.6 9.2 8.8 7.9.7-.4 5.3-5 10.1-10.1 11.1-11.6 7.9-11.4 46.2-3.9 4.4.9 12.7 2 18.5 2.6 17.3 1.7 55 9.3 69.5 14.1 9.4 3 12.5 2.3 12.5-3.2 0-1.8-1.2-3.7-3.8-6-10.3-9.1-9.9-8.9-15.2-8.9-2.8 0-9.3-1.1-14.4-2.5-18.8-5-38.6-8.4-67.9-11.5-4.9-.6-9.2-1.2-9.6-1.5-.4-.2-5.4-1.3-11.2-2.5l-15.2-3c-2.7-.5-5.6-1-6.6-1-.9 0-6.6 5-12.7 11z"/></svg>