<svg xmlns="http://www.w3.org/2000/svg" viewBox="0 0 32 32"><path d="M12.972 25.553h4.029v-6.42c0-1.694.32-3.334 2.42-3.334 2.07 0 2.096 1.936 2.096 3.441v6.313h4.034v-7.119c0-3.496-.755-6.183-4.84-6.183-1.963 0-3.279 1.076-3.817 2.096h-.055v-1.774h-3.867v12.98ZM8.423 6.12a2.339 2.339 0 1 0-.005 4.677 2.339 2.339 0 0 0 .005-4.677Zm-2.02 19.433h4.038v-12.98H6.403v12.98ZM1.766 32A1.766 1.766 0 0 1 0 30.234V1.766C0 .791.79 0 1.766 0h28.468C31.209 0 32 .791 32 1.766v28.468c0 .975-.791 1.766-1.766 1.766H1.766Z" fill="#007BB5" fill-rule="evenodd"/></svg>